<?xml version="1.0" encoding="UTF-8"?>
<svg width="219px" height="78.074px" viewBox="0 0 219 78.074" version="1.1" xmlns="http://www.w3.org/2000/svg" xmlns:xlink="http://www.w3.org/1999/xlink">
    <title>Combined Shape</title>
    <g id="banner" stroke="none" stroke-width="1" fill="none" fill-rule="evenodd">
        <g id="v3-dark" transform="translate(-138.000000, -90.000000)" fill="#DF2E38" fill-rule="nonzero">
            <path d="M141.97022,168.074 C140.76812,168.074 139.46582,167.469 138.76462,166.462 C137.46232,164.648 137.86302,162.13 139.66622,160.82 C161.80482,144.599 162.80652,123.9453 162.80652,123.1393 C162.90672,120.9228 164.70992,119.1092 166.91372,119.21 C169.11752,119.3107 170.82052,121.1243 170.82052,123.3408 C170.82052,124.3483 169.81882,148.73 144.37442,167.369 C143.67322,167.772 142.77162,168.074 141.97022,168.074 Z M232.22702,117.296 C234.43102,117.3967 236.13402,119.2102 236.13402,121.4267 C236.13402,121.8297 235.73402,132.61 227.41902,139.6625 C222.21002,144.095 215.09802,146.01 206.48262,145.304 C202.37542,151.652 195.86402,159.107 185.74642,167.167 C185.04522,167.772 184.14362,168.074 183.24202,168.074 C182.03992,168.074 180.83782,167.57 180.13662,166.563 C178.73422,164.85 179.03472,162.231 180.83782,160.921 C189.05212,154.372 194.56182,148.528 198.16802,143.3902 C196.16462,142.3827 194.06092,140.8715 192.95902,138.3527 C191.95722,136.0355 191.35622,132.207 194.86232,127.0687 C199.87102,119.6132 204.87982,117.9005 206.78312,117.4975 C209.38762,116.9937 211.89202,118.505 212.59322,121.0237 C213.09412,122.8372 214.29622,128.58 210.68992,137.3452 C215.49802,137.2445 219.30502,135.9347 222.21002,133.5167 C227.72002,128.8822 228.12002,121.2252 228.12002,121.2252 C228.22002,119.0087 230.02402,117.296 232.22702,117.296 Z M229.92302,152.357 C230.42302,154.573 229.02102,156.689 226.81702,157.193 C217.399005,159.243892 210.804381,159.590698 210.133777,159.610098 L209.98782,159.611 C207.88412,159.611 206.08092,157.898 205.98082,155.682 C205.88062,153.465 207.58362,151.551 209.78742,151.45 L209.816386,151.449013 C210.297517,151.428839 216.486601,151.086258 225.11402,149.234 C227.31802,148.73 229.42202,150.14 229.92302,152.357 Z M258.27202,117.2958 C258.87302,118.1018 264.28302,125.6581 263.78202,133.2144 C263.28102,142.3826 256.26902,148.025 238.83802,153.667 C238.43702,153.767 238.03702,153.767 237.63602,153.767 C235.93302,153.767 234.33002,152.659 233.82902,150.946 C233.12802,148.831 234.33002,146.513 236.43402,145.909 C255.36702,139.8639 255.66802,135.2294 255.76802,132.7106 C255.96802,128.7813 252.96302,123.7438 251.76102,122.0311 C250.45802,120.2176 250.85902,117.6988 252.66202,116.3891 C254.46502,115.0793 256.97002,115.4823 258.27202,117.2958 Z M183.94272,91 C186.14652,91.1008 187.84952,92.9143 187.84952,95.1308 C187.84952,95.9496794 187.389933,109.109344 186.252906,123.245804 L186.176098,124.189557 C186.13719,124.662032 186.097524,125.135312 186.057092,125.608976 L185.975203,126.556691 L185.863206,127.816283 L185.747543,129.074605 C185.297099,133.893498 184.765101,138.645721 184.14302,142.8863 C183.94272,144.901 182.23972,146.312 180.23622,146.312 L179.63522,146.312 C177.43132,146.01 175.92872,143.8938 176.22922,141.6773 C176.878348,137.37326 177.423618,132.454081 177.877491,127.460156 L177.989063,126.210431 L178.043434,125.584987 L178.149374,124.334108 L178.251614,123.084805 C178.312386,122.329504 178.371147,121.5761 178.427943,120.826466 L178.495157,119.928835 C178.561432,119.033253 178.624901,118.144177 178.685638,117.264843 L178.745467,116.388877 C179.53112,104.755816 179.83552,95.0463821 179.83552,94.9293 C179.93572,92.7128 181.63872,91 183.94272,91 Z M205.07802,127.27 C203.97612,128.1768 202.77402,129.4865 201.47172,131.5015 C200.16942,133.5165 200.06932,134.6248 200.16942,134.927 C200.36982,135.4308 201.37152,135.9345 202.37332,136.3375 C204.17642,132.6098 204.87772,129.4865 205.07802,127.27 Z M314.423529,90 C318.425969,90 321.670588,93.2446188 321.670588,97.2470588 L344.752941,97.2470588 C347.514365,97.2470588 349.752941,99.4856351 349.752941,102.247059 L349.752941,125.329412 C353.755381,125.329412 357,128.574031 357,132.576471 C357,136.578911 353.755381,139.823529 349.752941,139.823529 L349.752941,162 C349.752941,164.761424 347.514365,167 344.752941,167 L322.576471,167 C322.576471,162.99756 319.331852,159.752941 315.329412,159.752941 C311.326972,159.752941 308.082353,162.99756 308.082353,167 L285,167 C282.238576,167 280,164.761424 280,162 L280,139.823529 C284.00244,139.823529 287.247059,136.578911 287.247059,132.576471 C287.247059,128.574031 284.00244,125.329412 280,125.329412 L280,102.247059 C280,99.4856351 282.238576,97.2470588 285,97.2470588 L307.176471,97.2470588 C307.176471,93.2446188 310.421089,90 314.423529,90 Z M301.913987,131.840796 C301.574657,130.789292 300.447163,130.211961 299.395659,130.551291 C298.32992,130.895214 297.744603,132.037805 298.088124,133.103673 C298.321283,133.82706 298.474721,134.311281 298.548438,134.556338 C298.738421,135.187904 298.900163,135.827171 299.033665,136.47414 C299.167166,137.121109 299.233917,137.737271 299.233917,138.322624 C299.233917,138.949054 299.120954,139.57035 298.895028,140.186511 C298.669103,140.802673 298.358455,141.40343 297.963085,141.988783 C297.567714,142.574136 297.095324,143.13895 296.545914,143.683226 C295.996503,144.227502 295.400881,144.746104 294.759046,145.239033 C294.445395,145.479917 293.612604,146.007731 292.260673,146.822474 C291.311838,147.394308 290.961179,148.598936 291.454882,149.590672 C291.479149,149.63942 291.505609,149.687046 291.534178,149.733403 C292.057663,150.582822 293.170621,150.847043 294.020025,150.323535 C295.973702,149.119511 297.162256,148.343784 297.585686,147.996355 C298.386695,147.339116 299.128656,146.6408 299.811568,145.901407 C300.49448,145.162013 301.084968,144.38411 301.583032,143.567696 C302.081095,142.751282 302.471331,141.904061 302.753738,141.026031 C303.036145,140.148001 303.177349,139.246866 303.177349,138.322624 C303.177349,137.644846 303.120867,136.949098 303.007904,136.235378 C302.894941,135.521658 302.748603,134.80537 302.56889,134.086515 C302.487998,133.762948 302.273297,133.025862 301.924788,131.875255 C301.921277,131.86374 301.917684,131.852252 301.913987,131.840796 Z M339.556014,115.709578 C339.116707,114.721759 337.959793,114.277101 336.971973,114.716408 L330.374794,117.650329 C329.831406,117.89199 329.335787,118.229189 328.911498,118.645902 C326.952725,120.569697 326.924369,123.717141 328.848165,125.675915 L329.262576,126.105302 C329.937929,126.817739 330.536618,127.514129 331.058643,128.194474 C331.685074,129.010888 332.178003,129.806762 332.53743,130.582099 C332.896857,131.357435 333.076571,132.1148 333.076571,132.854193 C333.076571,133.419008 332.979012,133.893965 332.783894,134.279066 C332.588777,134.664167 332.321774,134.982517 331.982885,135.234116 C331.643996,135.485715 331.248626,135.678265 330.796775,135.811767 C330.344923,135.945268 329.867398,136.042827 329.3642,136.104443 C328.861001,136.16606 328.339832,136.202002 327.800691,136.212272 C327.26155,136.222541 326.74038,136.227676 326.237182,136.227676 L324.619759,136.227676 C324.198715,136.227676 323.857259,136.122415 323.595391,135.911893 C323.333522,135.701371 323.125568,135.439503 322.971527,135.126288 C322.817487,134.813072 322.707091,134.469049 322.640341,134.094218 C322.57359,133.719386 322.52481,133.367661 322.494002,133.039041 C322.452925,132.494766 322.414415,132.019808 322.378472,131.614169 C322.342529,131.208529 322.296317,130.828563 322.239836,130.47427 C322.229239,130.407796 322.207999,130.300042 322.176118,130.151007 C322.167875,130.112559 322.158446,130.074376 322.147827,130.036516 C321.867316,129.036432 320.829189,128.453104 319.829105,128.733615 C318.790983,129.024796 318.176588,130.092985 318.44686,131.136746 C318.489687,131.302116 318.524257,131.440719 318.550571,131.552553 C318.694342,132.163579 318.766227,132.643671 318.766227,132.992829 C318.766227,134.071111 318.36829,134.879823 317.572415,135.418964 C316.77654,135.958105 315.592997,136.227676 314.021786,136.227676 L313.374817,136.227676 C312.974312,136.227676 312.622586,136.186598 312.319641,136.104443 C312.016695,136.022289 311.767663,135.88622 311.572545,135.696237 C311.377427,135.506254 311.241358,135.267491 311.164338,134.979949 C311.087318,134.692407 311.048808,134.363788 311.048808,133.994091 L311.048808,133.747627 C311.048808,133.429277 311.051375,133.116062 311.05651,132.807981 C311.061645,132.4999 311.066779,132.186685 311.071914,131.868335 C311.077049,131.549985 311.082183,131.218799 311.087318,130.874775 C311.092453,130.530752 311.09502,130.163623 311.09502,129.773387 C311.09502,129.311266 311.089885,128.774692 311.079616,128.163666 C311.069347,127.552639 311.064212,126.974988 311.064212,126.430713 C311.064212,125.537279 311.046241,124.584796 311.010298,123.573265 C310.974355,122.561734 310.920441,121.568174 310.848556,120.592585 C310.814256,120.127092 310.709818,119.153094 310.535241,117.670591 C310.523783,117.573113 310.503883,117.476816 310.475783,117.382775 C310.207055,116.483433 309.260147,115.972219 308.360805,116.240947 C307.248635,116.573268 306.537102,117.657883 306.675201,118.810396 C306.776876,119.659051 306.838113,120.230008 306.858912,120.523267 C306.910259,121.247256 306.953903,121.996919 306.989846,122.772255 C307.025789,123.547592 307.05403,124.322928 307.074568,125.098264 C307.095107,125.8736 307.110511,126.633532 307.12078,127.37806 C307.13105,128.122589 307.136184,128.818337 307.136184,129.465306 C307.136184,130.553858 307.125915,131.475532 307.105376,132.23033 C307.084838,132.985127 307.074568,133.526836 307.074568,133.855455 C307.084838,135.970942 307.629113,137.552422 308.707395,138.599896 C309.785678,139.64737 311.367158,140.171107 313.451837,140.171107 L314.069409,140.171057 C315.496747,140.168046 316.710628,140.029426 317.711051,139.755199 C318.722582,139.477926 319.582641,139.046613 320.291226,138.46126 C320.773886,138.964458 321.366941,139.375232 322.070392,139.693582 C322.695681,139.97656 323.436596,140.13377 324.293136,140.165212 L324.311678,140.171107 L329.44122,140.171107 C330.437347,140.171107 331.38983,140.00423 332.298668,139.670476 C333.207505,139.336722 334.005948,138.864332 334.693994,138.253306 C335.382041,137.642279 335.928884,136.900318 336.334523,136.027423 C336.740163,135.154528 336.942983,134.17894 336.942983,133.100658 C336.942983,132.556382 336.873664,131.955625 336.735028,131.298386 C336.596392,130.641147 336.375601,129.947966 336.072655,129.218842 C335.769709,128.489718 335.371772,127.732353 334.878843,126.946748 C334.385914,126.161142 333.785156,125.372969 333.076571,124.582229 C332.604181,124.058492 332.139493,123.580967 331.682506,123.149654 L331.597984,123.061341 C331.518161,122.968967 331.452703,122.864796 331.40405,122.752308 C331.140275,122.142444 331.420835,121.43422 332.030697,121.170442 L338.519591,118.363896 C339.53102,117.926437 339.999857,116.754732 339.56937,115.740316 C339.565006,115.730032 339.560554,115.719786 339.556014,115.709578 Z M319.825239,121.505279 C319.010041,120.694326 317.692312,120.696047 316.879233,121.509125 C316.066155,122.322203 316.064435,123.639932 316.875387,124.455131 L316.883069,124.462843 C317.695533,125.275306 319.012796,125.275306 319.825259,124.462843 L319.836787,124.451305 C320.647126,123.636723 320.643687,122.319464 319.825239,121.505279 Z" id="Combined-Shape"></path>
        </g>
    </g>
</svg>