<svg xmlns="http://www.w3.org/2000/svg" fill="none" viewBox="0 0 155 64" height="64px" width="155px">
    <style type="text/css">@media(prefers-color-scheme:dark){path{fill:#df2e38}}</style>
    <path fill="#A62626"
          d="M2.678 58c-.741 0-1.544-.377-1.976-1.004a2.539 2.539 0 0 1 .556-3.514C14.9 43.38 15.518 30.518 15.518 30.016c.063-1.38 1.174-2.51 2.532-2.447 1.358.062 2.408 1.192 2.408 2.572 0 .628-.618 15.812-16.299 27.42-.432.25-.988.439-1.481.439Zm55.624-31.623c1.358.062 2.408 1.192 2.408 2.572 0 .251-.247 6.965-5.371 11.357-3.21 2.76-7.593 3.953-12.903 3.513-2.531 3.954-6.544 8.596-12.78 13.616a2.347 2.347 0 0 1-1.543.565c-.74 0-1.482-.314-1.914-.941-.864-1.067-.679-2.698.432-3.514 5.063-4.078 8.458-7.718 10.68-10.918-1.234-.627-2.53-1.568-3.21-3.137-.617-1.443-.987-3.827 1.174-7.027 3.086-4.643 6.173-5.71 7.346-5.96 1.605-.315 3.149.627 3.58 2.195.31 1.13 1.05 4.706-1.172 10.165 2.963-.063 5.31-.879 7.1-2.385 3.395-2.886 3.642-7.654 3.642-7.654a2.537 2.537 0 0 1 2.531-2.447Zm-1.42 21.835c.308 1.38-.556 2.698-1.914 3.011-5.804 1.278-9.869 1.494-10.282 1.506h-.09c-1.296 0-2.408-1.066-2.47-2.447-.061-1.38.989-2.572 2.347-2.635h.018c.296-.013 4.11-.227 9.427-1.38 1.359-.314 2.655.564 2.964 1.945Zm17.471-21.836c.37.502 3.705 5.208 3.396 9.914-.309 5.71-4.63 9.224-15.373 12.738-.247.062-.493.062-.74.062a2.45 2.45 0 0 1-2.347-1.757c-.432-1.317.31-2.76 1.606-3.137 11.668-3.765 11.854-6.65 11.915-8.22.123-2.447-1.729-5.584-2.47-6.65a2.538 2.538 0 0 1 .556-3.514 2.446 2.446 0 0 1 3.457.564ZM28.545 10c1.358.063 2.408 1.192 2.408 2.573 0 .51-.284 8.705-.984 17.509l-.048.588-.073.884-.05.59-.07.784-.07.784c-.279 3.001-.606 5.96-.99 8.602-.123 1.254-1.173 2.133-2.407 2.133h-.37c-1.36-.188-2.285-1.506-2.1-2.886.4-2.68.736-5.744 1.016-8.854l.069-.779.033-.39.066-.778.063-.778.108-1.407.042-.559c.04-.557.08-1.111.117-1.659l.037-.545c.484-7.245.672-13.292.672-13.365.061-1.38 1.11-2.447 2.53-2.447ZM41.57 32.588c-.679.565-1.42 1.38-2.222 2.635-.803 1.255-.864 1.946-.803 2.134.124.313.741.627 1.358.878 1.112-2.321 1.544-4.267 1.667-5.647Z"/>
    <path fill="#A62626" fill-rule="evenodd"
          d="M146.795 14.77v13.128a8.206 8.206 0 0 1 0 16.41v13.128A6.564 6.564 0 0 1 140.231 64h-11.472c-.552 0-.994-.45-1.055-.998a8.82 8.82 0 0 0-8.807-7.864 8.82 8.82 0 0 0-8.806 7.864c-.061.548-.503.998-1.055.998H97.564A6.564 6.564 0 0 1 91 57.436V44.964a8.825 8.825 0 0 0 8.862-8.861A8.825 8.825 0 0 0 91 27.24V14.77a6.564 6.564 0 0 1 6.564-6.564h13.128a8.205 8.205 0 0 1 16.411 0h13.128a6.562 6.562 0 0 1 6.564 6.564Zm-38.408 19.886a1.316 1.316 0 0 1 1.661.859l.008.023c.229.766.371 1.257.425 1.472.118.479.215.956.289 1.43.075.476.112.94.112 1.39 0 .616-.093 1.216-.279 1.8a7.917 7.917 0 0 1-.773 1.693 9.848 9.848 0 0 1-1.169 1.554c-.45.492-.94.957-1.469 1.395-.279.23-1.063.747-2.352 1.549a1.185 1.185 0 0 1-1.693-.488 1.422 1.422 0 0 1 .532-1.843c.892-.543 1.441-.894 1.648-1.054.424-.329.817-.674 1.179-1.036.363-.363.675-.739.935-1.128.261-.39.466-.79.615-1.2.149-.41.224-.825.224-1.242 0-.39-.044-.8-.132-1.23-.088-.431-.195-.857-.32-1.277-.049-.163-.15-.486-.304-.968-.227-.71.16-1.47.863-1.699Zm24.794-10.543a1.287 1.287 0 0 1 1.705.661l.009.02a1.34 1.34 0 0 1-.693 1.747l-4.282 1.87a.804.804 0 0 0-.285 1.258l.056.059c.301.287.608.605.919.954a11.68 11.68 0 0 1 1.19 1.574c.325.523.587 1.027.787 1.513.2.485.346.947.437 1.385.092.437.138.837.138 1.2 0 .718-.134 1.367-.402 1.948a4.483 4.483 0 0 1-1.082 1.482 4.887 4.887 0 0 1-1.581.944c-.6.222-1.228.333-1.885.333h-3.385l-.012-.004c-.565-.02-1.054-.125-1.467-.314a3.75 3.75 0 0 1-1.174-.82c-.467.39-1.035.677-1.702.861-.66.183-1.461.275-2.403.277h-.408c-1.375 0-2.419-.349-3.13-1.046-.712-.697-1.071-1.75-1.077-3.159 0-.219.006-.58.02-1.082.013-.502.02-1.116.02-1.841 0-.43-.003-.894-.01-1.39a89.008 89.008 0 0 0-.086-3.067 62.66 62.66 0 0 0-.087-1.497 28.083 28.083 0 0 0-.121-1.14 1.588 1.588 0 0 1 1.112-1.711 1.12 1.12 0 0 1 1.435.952c.115.987.184 1.635.207 1.945.047.65.083 1.311.106 1.985.024.673.036 1.308.036 1.902 0 .363.003.748.01 1.154a62.743 62.743 0 0 1 .005 1.805l-.01.662-.01.626c-.003.205-.005.413-.005.625v.164c0 .246.025.465.076.657.051.191.141.35.269.477.129.126.293.217.493.271.2.055.432.083.697.083h.427c1.036 0 1.817-.18 2.342-.539.525-.359.788-.897.788-1.615 0-.233-.047-.552-.142-.96-.018-.074-.04-.166-.069-.276a1.32 1.32 0 0 1 .912-1.6 1.24 1.24 0 0 1 1.549.944c.021.099.035.17.042.215.037.236.068.489.091.759.024.27.05.586.077.949.02.218.052.453.096.702.044.25.117.479.219.687.101.209.239.383.411.523.173.14.399.21.676.21h1.068c.332 0 .675-.003 1.031-.01.356-.006.7-.03 1.032-.072.332-.04.647-.105.945-.194.298-.09.559-.218.783-.385.223-.168.4-.38.528-.636.129-.256.193-.572.193-.949 0-.492-.118-.996-.355-1.512a8.555 8.555 0 0 0-.976-1.59c-.345-.453-.74-.917-1.185-1.391l-.274-.286a3.332 3.332 0 0 1 .042-4.68c.28-.278.607-.503.966-.664l4.353-1.953Zm-13.258 4.523a1.368 1.368 0 0 1 1.944-.003c.54.542.542 1.42.007 1.962l-.007.007a1.365 1.365 0 0 1-1.942 0l-.005-.005a1.397 1.397 0 0 1 .003-1.961Z"
          clip-rule="evenodd"/>
    <path fill="#A62626" d="M95 36a4 4 0 1 1-8 0 4 4 0 0 1 8 0Z"/>
</svg>