<svg xmlns="http://www.w3.org/2000/svg" fill="none" viewBox="0 0 220 201.5">
    <style type="text/css">@media(prefers-color-scheme:dark){path{stroke:#df2e38}}</style>
    <g transform="scale(0.5)">
        <path stroke="#A62526" stroke-width="8"
              d="M143.167 69.495c5.262-1.237 11.242-1.23 16.694.33l101.003 28.901c3.226-6.186 10.643-10.403 19.264-12.43 7.912-1.861 16.905-1.848 25.103.498 7.612 2.178 13.212 5.953 15.864 10.576 1.14 1.986 1.69 4.115 1.521 6.277-.29 3.71-2.678 7.43-7.037 10.736l108.694 31.103c4.866 1.392 8.507 3.752 10.21 6.72.657 1.145.987 2.37.89 3.618-.1 1.267-.631 2.529-1.543 3.749l-52.02 69.576c10.567 1.697 18.389 6.126 21.676 11.856 1.14 1.987 1.69 4.116 1.521 6.278-.168 2.148-1.039 4.298-2.588 6.37-3.705 4.955-10.31 8.39-17.83 10.16-8.757 2.059-18.838 1.822-27.7-1.332l-48.122 64.363c-2.406 3.218-6.722 5.4-11.593 6.545-5.261 1.237-11.242 1.23-16.694-.33l-93.249-26.682c.78-1.892 1.228-3.8 1.376-5.693.292-3.734-.58-7.436-2.557-10.883-3.466-6.041-10.504-11.396-20.603-14.286-9.513-2.722-19.95-2.755-29.135-.595-8.435 1.985-15.77 5.833-20.592 10.994l-99.651-28.516c-4.866-1.392-8.508-3.752-10.21-6.72-.657-1.145-.987-2.37-.89-3.618.1-1.267.63-2.529 1.543-3.749l44.81-59.934c8.761 2.013 18.113 1.857 26.436-.101 9.576-2.252 17.734-6.907 22.406-13.156 2.56-3.424 3.88-7.008 4.156-10.536.292-3.734-.58-7.436-2.557-10.883-2.815-4.906-7.985-9.36-15.238-12.408l45.05-60.253c2.406-3.218 6.722-5.4 11.592-6.545Z"
              clip-rule="evenodd" opacity=".3"/>
        <path stroke="#A62526" stroke-width="8"
              d="M143.167 101.495c5.262-1.237 11.242-1.23 16.694.33l101.003 28.901c3.226-6.186 10.643-10.403 19.264-12.43 7.912-1.861 16.905-1.848 25.103.498 7.612 2.178 13.212 5.953 15.864 10.576 1.14 1.986 1.69 4.115 1.521 6.277-.29 3.71-2.678 7.43-7.037 10.736l108.694 31.103c4.866 1.392 8.507 3.752 10.21 6.72.657 1.145.987 2.37.89 3.618-.1 1.267-.631 2.529-1.543 3.749l-52.02 69.576c10.567 1.697 18.389 6.126 21.676 11.856 1.14 1.987 1.69 4.116 1.521 6.278-.168 2.148-1.039 4.298-2.588 6.37-3.705 4.955-10.31 8.39-17.83 10.16-8.757 2.059-18.838 1.822-27.7-1.332l-48.122 64.363c-2.406 3.218-6.722 5.4-11.593 6.545-5.261 1.237-11.242 1.23-16.694-.33l-93.249-26.682c.78-1.892 1.228-3.8 1.376-5.693.292-3.734-.58-7.436-2.557-10.883-3.466-6.041-10.504-11.396-20.603-14.286-9.513-2.722-19.95-2.755-29.135-.595-8.435 1.985-15.77 5.833-20.592 10.994l-99.651-28.516c-4.866-1.392-8.508-3.752-10.21-6.72-.657-1.145-.987-2.37-.89-3.618.1-1.267.63-2.529 1.543-3.749l44.81-59.934c8.761 2.013 18.113 1.857 26.436-.101 9.576-2.252 17.734-6.907 22.406-13.156 2.56-3.424 3.88-7.008 4.156-10.536.292-3.734-.58-7.436-2.557-10.883-2.815-4.906-7.985-9.36-15.238-12.408l45.05-60.253c2.406-3.218 6.722-5.4 11.592-6.545Z"
              clip-rule="evenodd" opacity=".2"/>
        <path stroke="#A62526" stroke-width="8"
              d="M143.167 133.495c5.262-1.237 11.242-1.23 16.694.33l101.003 28.901c3.226-6.186 10.643-10.403 19.264-12.43 7.912-1.861 16.905-1.848 25.103.498 7.612 2.178 13.212 5.953 15.864 10.576 1.14 1.986 1.69 4.115 1.521 6.277-.29 3.71-2.678 7.43-7.037 10.736l108.694 31.103c4.866 1.392 8.507 3.752 10.21 6.72.657 1.145.987 2.37.89 3.618-.1 1.267-.631 2.529-1.543 3.749l-52.02 69.576c10.567 1.697 18.389 6.126 21.676 11.856 1.14 1.987 1.69 4.116 1.521 6.278-.168 2.148-1.039 4.298-2.588 6.37-3.705 4.955-10.31 8.39-17.83 10.16-8.757 2.059-18.838 1.822-27.7-1.332l-48.122 64.363c-2.406 3.218-6.722 5.4-11.593 6.545-5.261 1.237-11.242 1.23-16.694-.33l-93.249-26.682c.78-1.892 1.228-3.8 1.376-5.693.292-3.734-.58-7.436-2.557-10.883-3.466-6.041-10.504-11.396-20.603-14.286-9.513-2.722-19.95-2.755-29.135-.595-8.435 1.985-15.77 5.833-20.592 10.994l-99.651-28.516c-4.866-1.392-8.508-3.752-10.21-6.72-.657-1.145-.987-2.37-.89-3.618.1-1.267.63-2.529 1.543-3.749l44.81-59.934c8.761 2.013 18.113 1.857 26.436-.101 9.576-2.252 17.734-6.907 22.406-13.156 2.56-3.424 3.88-7.008 4.156-10.536.292-3.734-.58-7.436-2.557-10.883-2.815-4.906-7.985-9.36-15.238-12.408l45.05-60.253c2.406-3.218 6.722-5.4 11.592-6.545Z"
              clip-rule="evenodd" opacity=".1"/>
        <path stroke="#A62526" stroke-width="8"
              d="M143.167 37.495c5.262-1.237 11.242-1.23 16.694.33l101.003 28.901c3.226-6.186 10.643-10.403 19.264-12.43 7.912-1.861 16.905-1.848 25.103.498 7.612 2.178 13.212 5.953 15.864 10.576 1.14 1.986 1.69 4.115 1.521 6.277-.29 3.71-2.678 7.43-7.037 10.736l108.694 31.103c4.866 1.392 8.507 3.752 10.21 6.72.657 1.145.987 2.37.89 3.618-.1 1.267-.631 2.529-1.543 3.749l-52.02 69.576c10.567 1.697 18.389 6.126 21.676 11.856 1.14 1.987 1.69 4.116 1.521 6.278-.168 2.148-1.039 4.298-2.588 6.37-3.705 4.955-10.31 8.39-17.83 10.16-8.757 2.059-18.838 1.822-27.7-1.332l-48.122 64.363c-2.406 3.218-6.722 5.4-11.593 6.545-5.261 1.237-11.242 1.23-16.694-.33l-93.249-26.682c.78-1.892 1.228-3.8 1.376-5.693.292-3.734-.58-7.436-2.557-10.883-3.466-6.041-10.504-11.396-20.603-14.286-9.513-2.722-19.95-2.755-29.135-.595-8.435 1.985-15.77 5.833-20.592 10.994l-99.651-28.516c-4.866-1.392-8.508-3.752-10.21-6.72-.657-1.145-.987-2.37-.89-3.618.1-1.267.63-2.529 1.543-3.749l44.81-59.934c8.761 2.013 18.113 1.857 26.436-.101 9.576-2.252 17.734-6.907 22.406-13.156 2.56-3.424 3.88-7.008 4.156-10.536.292-3.734-.58-7.436-2.557-10.883-2.815-4.906-7.985-9.36-15.238-12.408l45.05-60.253c2.406-3.218 6.722-5.4 11.592-6.545Z"
              clip-rule="evenodd" opacity=".4"/>
        <path stroke="#A62526" stroke-width="8"
              d="M143.167 5.495c5.262-1.237 11.242-1.23 16.694.33l101.003 28.901c3.226-6.186 10.643-10.403 19.264-12.43 7.912-1.861 16.905-1.848 25.103.498 7.612 2.178 13.212 5.953 15.864 10.576 1.14 1.986 1.69 4.115 1.521 6.277-.29 3.71-2.678 7.43-7.037 10.736l108.694 31.103c4.866 1.392 8.507 3.752 10.21 6.72.657 1.145.987 2.37.89 3.618-.1 1.267-.631 2.529-1.543 3.749l-52.02 69.576c10.567 1.697 18.389 6.126 21.676 11.856 1.14 1.987 1.69 4.116 1.521 6.278-.168 2.148-1.039 4.298-2.588 6.37-3.705 4.955-10.31 8.39-17.83 10.16-8.757 2.059-18.838 1.822-27.7-1.332l-48.122 64.363c-2.406 3.218-6.722 5.4-11.593 6.545-5.261 1.237-11.242 1.23-16.694-.33l-93.249-26.682c.78-1.892 1.228-3.8 1.376-5.693.292-3.734-.58-7.436-2.557-10.883-3.466-6.041-10.504-11.396-20.603-14.286-9.513-2.722-19.95-2.755-29.135-.595-8.435 1.985-15.77 5.833-20.592 10.994l-99.651-28.516c-4.866-1.392-8.508-3.752-10.21-6.72-.657-1.145-.987-2.37-.89-3.618.1-1.267.63-2.529 1.543-3.749l44.81-59.934c8.761 2.013 18.113 1.857 26.436-.101 9.576-2.252 17.734-6.907 22.406-13.156 2.56-3.424 3.88-7.008 4.156-10.536.292-3.734-.58-7.436-2.557-10.883-2.815-4.906-7.985-9.36-15.238-12.408l45.05-60.253c2.406-3.218 6.722-5.4 11.592-6.545Z"
              clip-rule="evenodd" opacity=".5"/>
    </g>
</svg>