<?xml version="1.0" encoding="UTF-8"?>
<svg width="438px" height="401px" viewBox="0 0 438 401" version="1.1" xmlns="http://www.w3.org/2000/svg" xmlns:xlink="http://www.w3.org/1999/xlink">
    <title>wire-puzzle-dark</title>
    <g id="wire-puzzle-dark" stroke="none" stroke-width="1" fill="none" fill-rule="evenodd">
        <g id="Group" transform="translate(-0.047831, -0.390288)" stroke="#DF2E38" stroke-width="8">
            <path d="M142.214994,68.8855951 C147.476468,67.6480168 153.456935,67.6546558 158.908853,69.214718 L259.912029,98.1166978 C263.137506,91.9303165 270.555033,87.7136164 279.17605,85.6858227 C287.088021,83.824807 296.080755,83.8386961 304.278472,86.1844666 C311.890431,88.3626225 317.491275,92.1375817 320.142643,96.7598311 C321.282329,98.7466973 321.833027,100.875664 321.663885,103.037387 C321.373599,106.747405 318.986013,110.466626 314.626872,113.773307 L423.320478,144.875897 C428.186637,146.268345 431.828039,148.627904 433.531096,151.596919 C434.187627,152.741478 434.517639,153.966401 434.420008,155.214169 C434.320826,156.481776 433.789758,157.743279 432.877718,158.96313 L380.858255,228.539049 C391.425077,230.236481 399.246349,234.664887 402.533635,240.395763 C403.673322,242.382629 404.224019,244.511596 404.054877,246.673319 C403.886847,248.820833 403.016101,250.97143 401.467025,253.043316 C397.762216,257.998489 391.157329,261.433353 383.636532,263.202358 C374.879431,265.262161 364.79835,265.025126 355.936652,261.871637 L307.814695,326.23465 C305.408611,329.452782 301.092454,331.633521 296.222155,332.779089 C290.960682,334.016667 284.980215,334.010028 279.528297,332.449966 L186.27916,305.766798 C187.058406,303.875269 187.506982,301.966485 187.655068,300.073866 C187.947195,296.340335 187.074412,292.637982 185.097618,289.191748 C181.63213,283.150206 174.594058,277.795462 164.494894,274.905594 C154.981489,272.18334 144.544313,272.150464 135.359878,274.310783 C126.92441,276.294933 119.589053,280.143323 114.76766,285.303839 L15.1166716,256.788786 C10.2505123,255.396339 6.60911041,253.03678 4.90605371,250.067765 C4.24952321,248.923205 3.91951119,247.698282 4.01714145,246.450515 C4.11632402,245.182908 4.64739207,243.921404 5.55943131,242.701554 L50.3704164,182.766959 C59.1311696,184.780632 68.482874,184.624002 76.8058261,182.666318 C86.3814362,180.413989 94.5394547,175.759419 99.211761,169.51022 C101.771739,166.086254 103.092009,162.501963 103.368062,158.973848 C103.660189,155.240317 102.787406,151.537965 100.810612,148.091731 C97.9962512,143.185328 92.825685,138.731885 85.5728713,135.683753 L130.622455,75.4300337 C133.028539,72.2119019 137.344696,70.0311632 142.214994,68.8855951 Z" id="Path-Copy-2" opacity="0.6"></path>
            <path d="M142.214994,100.885595 C147.476468,99.6480168 153.456935,99.6546558 158.908853,101.214718 L259.912029,130.116698 C263.137506,123.930316 270.555033,119.713616 279.17605,117.685823 C287.088021,115.824807 296.080755,115.838696 304.278472,118.184467 C311.890431,120.362623 317.491275,124.137582 320.142643,128.759831 C321.282329,130.746697 321.833027,132.875664 321.663885,135.037387 C321.373599,138.747405 318.986013,142.466626 314.626872,145.773307 L423.320478,176.875897 C428.186637,178.268345 431.828039,180.627904 433.531096,183.596919 C434.187627,184.741478 434.517639,185.966401 434.420008,187.214169 C434.320826,188.481776 433.789758,189.743279 432.877718,190.96313 L380.858255,260.539049 C391.425077,262.236481 399.246349,266.664887 402.533635,272.395763 C403.673322,274.382629 404.224019,276.511596 404.054877,278.673319 C403.886847,280.820833 403.016101,282.97143 401.467025,285.043316 C397.762216,289.998489 391.157329,293.433353 383.636532,295.202358 C374.879431,297.262161 364.79835,297.025126 355.936652,293.871637 L307.814695,358.23465 C305.408611,361.452782 301.092454,363.633521 296.222155,364.779089 C290.960682,366.016667 284.980215,366.010028 279.528297,364.449966 L186.27916,337.766798 C187.058406,335.875269 187.506982,333.966485 187.655068,332.073866 C187.947195,328.340335 187.074412,324.637982 185.097618,321.191748 C181.63213,315.150206 174.594058,309.795462 164.494894,306.905594 C154.981489,304.18334 144.544313,304.150464 135.359878,306.310783 C126.92441,308.294933 119.589053,312.143323 114.76766,317.303839 L15.1166716,288.788786 C10.2505123,287.396339 6.60911041,285.03678 4.90605371,282.067765 C4.24952321,280.923205 3.91951119,279.698282 4.01714145,278.450515 C4.11632402,277.182908 4.64739207,275.921404 5.55943131,274.701554 L50.3704164,214.766959 C59.1311696,216.780632 68.482874,216.624002 76.8058261,214.666318 C86.3814362,212.413989 94.5394547,207.759419 99.211761,201.51022 C101.771739,198.086254 103.092009,194.501963 103.368062,190.973848 C103.660189,187.240317 102.787406,183.537965 100.810612,180.091731 C97.9962512,175.185328 92.825685,170.731885 85.5728713,167.683753 L130.622455,107.430034 C133.028539,104.211902 137.344696,102.031163 142.214994,100.885595 Z" id="Path-Copy-3" opacity="0.4"></path>
            <path d="M142.214994,132.885595 C147.476468,131.648017 153.456935,131.654656 158.908853,133.214718 L259.912029,162.116698 C263.137506,155.930316 270.555033,151.713616 279.17605,149.685823 C287.088021,147.824807 296.080755,147.838696 304.278472,150.184467 C311.890431,152.362623 317.491275,156.137582 320.142643,160.759831 C321.282329,162.746697 321.833027,164.875664 321.663885,167.037387 C321.373599,170.747405 318.986013,174.466626 314.626872,177.773307 L423.320478,208.875897 C428.186637,210.268345 431.828039,212.627904 433.531096,215.596919 C434.187627,216.741478 434.517639,217.966401 434.420008,219.214169 C434.320826,220.481776 433.789758,221.743279 432.877718,222.96313 L380.858255,292.539049 C391.425077,294.236481 399.246349,298.664887 402.533635,304.395763 C403.673322,306.382629 404.224019,308.511596 404.054877,310.673319 C403.886847,312.820833 403.016101,314.97143 401.467025,317.043316 C397.762216,321.998489 391.157329,325.433353 383.636532,327.202358 C374.879431,329.262161 364.79835,329.025126 355.936652,325.871637 L307.814695,390.23465 C305.408611,393.452782 301.092454,395.633521 296.222155,396.779089 C290.960682,398.016667 284.980215,398.010028 279.528297,396.449966 L186.27916,369.766798 C187.058406,367.875269 187.506982,365.966485 187.655068,364.073866 C187.947195,360.340335 187.074412,356.637982 185.097618,353.191748 C181.63213,347.150206 174.594058,341.795462 164.494894,338.905594 C154.981489,336.18334 144.544313,336.150464 135.359878,338.310783 C126.92441,340.294933 119.589053,344.143323 114.76766,349.303839 L15.1166716,320.788786 C10.2505123,319.396339 6.60911041,317.03678 4.90605371,314.067765 C4.24952321,312.923205 3.91951119,311.698282 4.01714145,310.450515 C4.11632402,309.182908 4.64739207,307.921404 5.55943131,306.701554 L50.3704164,246.766959 C59.1311696,248.780632 68.482874,248.624002 76.8058261,246.666318 C86.3814362,244.413989 94.5394547,239.759419 99.211761,233.51022 C101.771739,230.086254 103.092009,226.501963 103.368062,222.973848 C103.660189,219.240317 102.787406,215.537965 100.810612,212.091731 C97.9962512,207.185328 92.825685,202.731885 85.5728713,199.683753 L130.622455,139.430034 C133.028539,136.211902 137.344696,134.031163 142.214994,132.885595 Z" id="Path-Copy-4" opacity="0.2"></path>
            <path d="M142.214994,36.8855951 C147.476468,35.6480168 153.456935,35.6546558 158.908853,37.214718 L259.912029,66.1166978 C263.137506,59.9303165 270.555033,55.7136164 279.17605,53.6858227 C287.088021,51.824807 296.080755,51.8386961 304.278472,54.1844666 C311.890431,56.3626225 317.491275,60.1375817 320.142643,64.7598311 C321.282329,66.7466973 321.833027,68.8756641 321.663885,71.0373875 C321.373599,74.7474046 318.986013,78.4666265 314.626872,81.7733071 L423.320478,112.875897 C428.186637,114.268345 431.828039,116.627904 433.531096,119.596919 C434.187627,120.741478 434.517639,121.966401 434.420008,123.214169 C434.320826,124.481776 433.789758,125.743279 432.877718,126.96313 L380.858255,196.539049 C391.425077,198.236481 399.246349,202.664887 402.533635,208.395763 C403.673322,210.382629 404.224019,212.511596 404.054877,214.673319 C403.886847,216.820833 403.016101,218.97143 401.467025,221.043316 C397.762216,225.998489 391.157329,229.433353 383.636532,231.202358 C374.879431,233.262161 364.79835,233.025126 355.936652,229.871637 L307.814695,294.23465 C305.408611,297.452782 301.092454,299.633521 296.222155,300.779089 C290.960682,302.016667 284.980215,302.010028 279.528297,300.449966 L186.27916,273.766798 C187.058406,271.875269 187.506982,269.966485 187.655068,268.073866 C187.947195,264.340335 187.074412,260.637982 185.097618,257.191748 C181.63213,251.150206 174.594058,245.795462 164.494894,242.905594 C154.981489,240.18334 144.544313,240.150464 135.359878,242.310783 C126.92441,244.294933 119.589053,248.143323 114.76766,253.303839 L15.1166716,224.788786 C10.2505123,223.396339 6.60911041,221.03678 4.90605371,218.067765 C4.24952321,216.923205 3.91951119,215.698282 4.01714145,214.450515 C4.11632402,213.182908 4.64739207,211.921404 5.55943131,210.701554 L50.3704164,150.766959 C59.1311696,152.780632 68.482874,152.624002 76.8058261,150.666318 C86.3814362,148.413989 94.5394547,143.759419 99.211761,137.51022 C101.771739,134.086254 103.092009,130.501963 103.368062,126.973848 C103.660189,123.240317 102.787406,119.537965 100.810612,116.091731 C97.9962512,111.185328 92.825685,106.731885 85.5728713,103.683753 L130.622455,43.4300337 C133.028539,40.2119019 137.344696,38.0311632 142.214994,36.8855951 Z" id="Path" opacity="0.8"></path>
            <path d="M142.214994,4.88559507 C147.476468,3.64801677 153.456935,3.65465576 158.908853,5.21471799 L259.912029,34.1166978 C263.137506,27.9303165 270.555033,23.7136164 279.17605,21.6858227 C287.088021,19.824807 296.080755,19.8386961 304.278472,22.1844666 C311.890431,24.3626225 317.491275,28.1375817 320.142643,32.7598311 C321.282329,34.7466973 321.833027,36.8756641 321.663885,39.0373875 C321.373599,42.7474046 318.986013,46.4666265 314.626872,49.7733071 L423.320478,80.8758974 C428.186637,82.2683451 431.828039,84.6279037 433.531096,87.5969193 C434.187627,88.7414785 434.517639,89.9664015 434.420008,91.214169 C434.320826,92.4817757 433.789758,93.7432794 432.877718,94.9631299 L380.858255,164.539049 C391.425077,166.236481 399.246349,170.664887 402.533635,176.395763 C403.673322,178.382629 404.224019,180.511596 404.054877,182.673319 C403.886847,184.820833 403.016101,186.97143 401.467025,189.043316 C397.762216,193.998489 391.157329,197.433353 383.636532,199.202358 C374.879431,201.262161 364.79835,201.025126 355.936652,197.871637 L307.814695,262.23465 C305.408611,265.452782 301.092454,267.633521 296.222155,268.779089 C290.960682,270.016667 284.980215,270.010028 279.528297,268.449966 L186.27916,241.766798 C187.058406,239.875269 187.506982,237.966485 187.655068,236.073866 C187.947195,232.340335 187.074412,228.637982 185.097618,225.191748 C181.63213,219.150206 174.594058,213.795462 164.494894,210.905594 C154.981489,208.18334 144.544313,208.150464 135.359878,210.310783 C126.92441,212.294933 119.589053,216.143323 114.76766,221.303839 L15.1166716,192.788786 C10.2505123,191.396339 6.60911041,189.03678 4.90605371,186.067765 C4.24952321,184.923205 3.91951119,183.698282 4.01714145,182.450515 C4.11632402,181.182908 4.64739207,179.921404 5.55943131,178.701554 L50.3704164,118.766959 C59.1311696,120.780632 68.482874,120.624002 76.8058261,118.666318 C86.3814362,116.413989 94.5394547,111.759419 99.211761,105.51022 C101.771739,102.086254 103.092009,98.5019633 103.368062,94.9738485 C103.660189,91.2403171 102.787406,87.5379646 100.810612,84.0917306 C97.9962512,79.1853282 92.825685,74.7318851 85.5728713,71.683753 L130.622455,11.4300337 C133.028539,8.21190186 137.344696,6.03116318 142.214994,4.88559507 Z" id="Path-Copy"></path>
        </g>
    </g>
</svg>